<svg version="1.1" xmlns="http://www.w3.org/2000/svg" xmlns:xlink="http://www.w3.org/1999/xlink" x="0px" y="0px" viewBox="0 0 1000 1000" enable-background="new 0 0 1000 1000" xml:space="preserve">
<g><g transform="translate(0.000000,512.000000) scale(0.100000,-0.100000)"><path d="M4635.7,5016.9c-640.8-55.6-1220.1-214.9-1774.6-487.3c-523.7-257.1-857.5-491.1-1270-890.2c-823-798.1-1300.7-1745.8-1467.6-2918c-32.6-228.3-30.7-982.3,1.9-1218.2c153.5-1114.6,633.1-2091.1,1402.4-2858.5c777-773.1,1734.3-1243.1,2868.1-1404.3c222.5-30.7,961.2-30.7,1199,0c920.9,122.8,1782.3,487.3,2486.3,1053.2c734.8,592.8,1283.5,1387,1582.7,2290.6c170.8,518,236,940,236,1532.8c1.9,602.4-59.5,997.6-237.9,1534.8c-257.1,778.9-646.5,1398.5-1248.9,1985.6C7663,4368.4,6751.8,4817.4,5690.9,4980.4C5497.1,5009.2,4823.7,5034.1,4635.7,5016.9z M5485.6,4802c61.4-59.5,65.2-97.8,11.5-143.9c-63.3-55.6-36.5-80.6,76.7-74.8c90.2,5.8,97.8,3.8,97.8-36.5c0-46-49.9-113.2-84.4-113.2c-49.9,0-182.3-287.8-184.2-397.1c0-32.6-11.5-72.9-24.9-86.3c-15.3-13.4-30.7-80.6-38.4-147.7c-11.5-134.3-57.5-218.7-122.8-228.3c-49.9-7.7-71-111.3-32.6-166.9c53.7-76.7,34.5-147.7-72.9-253.2c-107.4-105.5-209.1-159.2-301.2-159.2c-32.6,0-65.2-11.5-72.9-26.9c-7.7-13.4-86.3-61.4-170.7-103.6c-147.7-74.8-237.9-151.6-237.9-205.3c0-13.4-13.4-34.5-30.7-49.9c-17.3-13.4-55.6-74.8-86.3-136.2c-30.7-61.4-63.3-111.3-71-111.3c-32.6,0-101.7,63.3-132.4,120.9c-46,86.3-67.1,441.2-32.6,510.3c15.3,26.9,26.9,55.6,26.9,61.4c0,7.7,36.5,48,78.7,92.1c74.8,74.8,78.7,82.5,48,113.2c-44.1,49.9-38.4,124.7,21.1,249.4c36.5,80.6,51.8,149.6,59.5,264.8c7.7,142,3.8,161.1-34.5,199.5c-34.5,34.5-53.7,38.4-117,28.8l-74.8-13.4v76.7c0,49.9,11.5,86.3,38.4,109.4c21.1,19.2,44.1,69.1,49.9,109.4c11.5,65.2,19.2,74.8,92.1,94c42.2,11.5,99.8,28.8,126.6,34.5c32.6,9.6,51.8,34.5,63.3,80.6c9.6,36.5,26.9,71,38.4,78.7c11.5,7.7,17.3,19.2,9.6,24.9c-7.7,7.7-46-9.6-86.3-36.5c-38.4-26.9-80.6-49.9-88.2-49.9c-49.9,0-151.6-69.1-184.2-124.7c-21.1-36.5-72.9-86.3-115.1-113.2c-42.2-26.9-97.8-84.4-120.9-126.6c-46-80.6-90.2-95.9-130.4-48c-13.4,15.3-40.3,28.8-61.4,28.8c-19.2,0-40.3,13.4-46,28.8c-7.7,15.3-19.2,23-28.8,17.3c-26.9-15.3-21.1,65.2,7.7,86.3c11.5,9.6,57.5,49.9,99.8,88.3l76.7,69.1l-61.4-11.5c-34.5-7.7-63.3-5.8-63.3,1.9s30.7,76.7,67.1,153.5c55.6,115.1,76.7,142,130.4,159.2c174.6,53.7,667.6,136.2,824.9,136.2c94,0,115.1-24.9,67.1-74.8c-21.1-21.1-9.6-23,57.6-17.3c67.1,5.8,80.6,1.9,80.6-26.9c0-51.8,28.8-42.2,55.6,17.3c17.3,38.4,26.9,46,40.3,24.9s34.5-15.3,118.9,24.9c142,69.1,145.8,69.1,274.3,57.6C5405,4853.8,5445.3,4838.5,5485.6,4802z M3542.2,4589.1c0-30.7,11.5-59.5,28.8-67.1c15.3-5.8,28.8-23,28.8-38.4c0-40.3-88.3-95.9-126.6-80.6c-28.8,11.5-26.9,17.3,11.5,59.5c24.9,26.9,40.3,53.7,32.6,59.5c-7.7,7.7-38.4-13.4-69.1-48c-78.7-82.5-95.9-74.8-69.1,30.7c17.3,71,34.5,95.9,78.7,115.1C3536.4,4652.4,3542.2,4650.5,3542.2,4589.1z M6619.4,4389.6c15.4-24.9,11.5-38.4-17.3-59.5c-122.8-88.3-117-72.9-59.5-172.7c44.1-76.7,48-90.2,21.1-99.8c-17.3-7.7-46,1.9-65.2,21.1c-34.5,30.7-38.4,28.8-61.4-36.5c-13.4-38.4-30.7-69.1-38.4-69.1c-44.1,0-69.1,24.9-61.4,59.5c7.7,23,0,36.5-17.3,36.5c-36.4,0-97.8,155.4-80.6,199.5c7.7,19.2,32.6,30.7,67.1,30.7c42.2,0,61.4,13.4,78.7,48c11.5,26.9,32.6,48,44.1,48c13.4,0,34.5,11.5,46.1,26.9C6504.3,4454.8,6590.6,4435.6,6619.4,4389.6z M3043.4,4378c-9.6-21.1-19.2-42.2-19.2-48c0-21.1,69.1-11.5,103.6,13.4c26.9,19.2,53.7,21.1,109.4,5.8c42.2-9.6,74.8-24.9,74.8-32.6c0-5.8-19.2-36.5-42.2-65.2c-30.7-38.4-40.3-74.8-36.5-126.6c3.8-69.1-34.5-128.5-51.8-76.7c-5.8,15.4-23,40.3-42.2,59.5c-19.2,19.2-40.3,69.1-48,113.2c-13.4,84.4-38.4,101.7-57.6,40.3c-15.3-49.9-53.7-69.1-193.8-94c-142-26.9-184.2-13.4-176.5,49.9c3.8,34.5,34.5,61.4,117,107.4c76.7,40.3,117,51.8,124.7,38.4c9.6-15.3,28.8-11.5,61.4,13.4C3031.9,4426,3070.3,4426,3043.4,4378z M3461.6,4180.4c-5.8-59.5-1.9-63.3,74.8-72.9c99.8-15.3,107.4-21.1,90.2-84.4c-26.9-113.2-172.7-136.2-283.9-48c-57.5,46-63.3,103.6-19.2,170.7C3398.3,4257.2,3467.4,4274.4,3461.6,4180.4z M2525.4,4126.7c23-13.4,21.1-24.9-17.3-65.2c-36.4-38.4-42.2-53.7-23-76.7c17.3-21.1,17.3-28.8-1.9-36.4c-19.2-5.8-19.2-13.4-1.9-32.6c19.2-21.1,44.1-11.5,128.5,44.1c105.5,71,165,88.2,165,51.8c0-11.5-55.6-103.6-124.7-207.2c-105.5-155.4-124.7-199.5-124.7-266.7c0-69.1-5.8-82.5-36.5-82.5c-21.1,0-44.1-7.7-49.9-19.2c-7.7-11.5-30.7-9.6-65.2,9.6c-46,23-59.5,23-90.2,1.9c-32.6-24.9-32.6-28.8-1.9-76.7c44.1-65.2,115.1-82.5,176.5-42.2c26.9,17.3,48,40.3,48,49.9c0,9.6,46,53.7,103.6,97.8c82.5,63.3,109.4,99.8,128.5,165c11.5,46,32.6,90.2,44.1,97.8c11.5,7.7,32.6,34.5,46,61.4c13.4,26.9,53.7,80.6,90.2,120.9l63.3,72.9l117-34.5l117-36.5l-44.1-42.2c-24.9-23-59.5-42.2-74.8-42.2c-65.2,0-145.8-95.9-188-220.6c-23-69.1-49.9-124.7-59.5-124.7c-36.5,0-40.3-59.5-7.7-95.9c28.8-32.6,30.7-46,11.5-88.3c-38.4-84.4-5.8-76.7,94,21.1c103.6,101.7,117,142,57.6,157.3c-46,11.5-48,30.7-9.6,71c15.3,15.4,28.8,49.9,28.8,76.7c0,86.3,245.6,282,318.5,253.2c17.3-5.8,23-21.1,17.3-30.7c-7.7-13.4,3.8-17.3,36.5-7.7c32.6,7.7,67.1,0,99.8-21.1c48-30.7,49.9-38.4,38.4-145.8c-11.5-95.9-7.7-115.1,17.3-124.7c19.2-7.7,28.8-26.9,23-49.9c-7.7-23,1.9-40.3,21.1-48c17.3-7.7,38.4-21.1,46-32.6c21.1-30.7-3.8-153.5-34.5-170.7c-34.5-21.1-34.5-88.3,1.9-101.7c17.3-7.7,23-28.8,17.3-63.3c-7.7-34.5,0-63.3,19.2-84.4c28.8-28.8,26.9-36.5-28.8-97.8c-71-82.5-88.2-84.4-113.2-21.1c-38.4,97.8-95.9,32.6-59.5-67.1c13.4-42.2,13.4-72.9-1.9-105.5c-28.8-63.3-188-138.1-188-88.3c0,11.5-36.5,59.5-80.6,111.3c-57.6,67.1-90.2,90.2-122.8,86.3c-49.9-7.7-72.9,21.1-55.6,71c13.4,42.2,74.8,63.3,103.6,34.5c15.4-15.4,51.8,13.4,126.6,94c88.3,95.9,103.6,122.8,97.8,170.7c-15.4,107.4-57.5,193.8-103.6,216.8c-46,21.1-99.8,13.4-99.8-17.3c0-9.6-15.3-49.9-32.6-90.2c-17.3-38.4-49.9-122.8-72.9-186.1l-38.4-115.1l-90.2-5.8c-51.8-3.8-92.1-13.4-92.1-23s21.1-40.3,46-71c55.6-65.2,34.5-109.3-55.6-113.2c-30.7-1.9-76.7-9.6-101.7-17.3c-40.3-13.4-44.1-9.6-30.7,40.3c5.8,30.7,28.8,88.3,49.9,130.4c19.2,40.3,32.6,76.7,28.8,80.6c-11.5,13.4-178.4-103.6-245.6-172.7c-34.5-36.5-107.4-97.8-161.1-138.1c-111.3-80.6-184.2-191.8-201.4-310.8c-13.4-82.5-13.4-82.5,124.7-220.6l140-138.1l-17.3-101.7c-7.7-55.6-9.6-115.1-3.8-130.5c23-59.5,72.9-15.3,111.3,94c30.7,88.2,57.6,126.6,132.4,184.2c124.7,99.8,136.2,122.8,94,195.7l-34.5,57.6l59.5,51.8c44.1,36.5,69.1,82.5,86.3,153.5c32.6,130.5,51.8,145.8,147.7,118.9c57.6-13.4,78.7-32.6,88.3-67.1c7.7-30.7,24.9-48,48-48c53.7,0,61.4-44.1,19.2-107.4c-42.2-65.2-48-134.3-9.6-147.7c40.3-15.4,136.2,53.7,163.1,118.9c40.3,95.9,61.4,49.9,48-103.6c-15.3-163.1-3.8-224.5,53.7-282c46-46,55.6-95.9,59.5-312.7c3.8-143.9,5.8-153.5,48-159.2c34.5-5.8,42.2-19.2,42.2-78.7c0-119-105.5-166.9-168.8-76.7c-15.4,23-48,36.5-84.4,36.5c-67.1,0-67.1,1.9,67.1,161.1c40.3,48,69.1,94,63.3,103.6c-5.8,11.5-67.1-11.5-134.3-46c-117-63.3-126.6-65.2-209.1-44.1c-46,13.4-99.8,17.3-120.9,9.6c-36.5-13.4-36.5-15.4,0-40.3c19.2-15.3,46-30.7,57.6-34.5c15.4-5.8,13.4-19.2-1.9-48c-23-36.5-17.3-46,61.4-92.1c103.6-59.5,119-130.4,34.5-151.6c-30.7-5.8-90.2-28.8-136.2-51.8c-61.4-28.8-88.2-34.5-105.5-17.3c-11.5,11.5-53.7,21.1-95.9,21.1c-71,0-74.8-3.8-120.9-105.5c-42.2-92.1-55.6-105.5-103.6-105.5c-40.3,0-69.1-17.3-101.7-61.4C2345.1,828.9,2276,696.5,2276,650.5c0-61.4-11.5-74.8-145.8-165c-122.8-82.5-180.3-149.6-180.3-212.9c0-19.2,17.3-72.9,38.4-119c44.1-97.9,51.8-209.1,13.4-209.1c-36.5,0-101.7,95.9-130.5,189.9c-15.3,53.7-40.3,88.3-67.1,97.8c-23,9.6-48,26.9-55.6,36.4c-5.8,11.5-42.2,21.1-76.7,21.1c-48,0-74.8-11.5-95.9-44.1c-26.9-42.2-38.4-46-168.8-36.5c-176.5,9.6-224.5-21.1-270.5-184.2c-69.1-247.5-24.9-433.6,115.1-481.5c113.2-40.3,178.4-17.3,212.9,74.8c24.9,59.5,42.2,76.7,103.6,92.1l74.8,19.2v-71c0-38.4-17.3-94-38.4-126.6c-72.9-111.3-49.9-138.1,134.3-147.7l86.3-5.7l9.6-138.1c13.4-189.9,30.7-205.3,241.7-207.2l163.1-3.8l80.6,88.3c78.7,88.2,82.5,88.2,147.7,65.2c36.5-11.5,82.5-23,99.8-23c17.3-1.9,46-21.1,61.4-42.2c24.9-38.4,40.3-40.3,157.3-30.7c86.3,5.8,138.1,19.2,151.6,40.3c26.9,34.5,48,21.1,48-28.8c0-86.3,214.9-247.5,330-247.5c71,0,218.7-136.2,234-214.9c11.5-57.5,28.8-71,184.2-143.9c109.4-51.8,199.5-82.5,245.6-82.5c132.4,0,368.3-153.5,368.3-237.9c0-15.4-17.3-65.2-38.4-115.1c-30.7-67.1-44.1-159.2-59.5-379.9c-21.1-310.8-32.6-341.5-122.8-341.5c-23,0-57.6-17.3-76.7-38.4s-49.9-42.2-69.1-48c-42.2-13.4-69.1-95.9-40.3-130.5c24.9-30.7-15.3-259-49.9-280.1c-17.3-11.5-19.2-28.8-5.8-65.2c17.3-42.2,13.4-55.6-28.8-88.3c-26.9-21.1-57.6-40.3-69.1-44.1c-15.3-5.8-15.3-19.2,1.9-48c44.1-84.4,7.7-197.6-65.2-197.6c-24.9,0-30.7-11.5-24.9-48c7.7-36.5,1.9-48-24.9-48c-51.8,0-44.1-48,11.5-72.9c48-21.1,59.5-44.1,36.5-67.1c-5.8-5.8-15.3-55.6-19.2-107.5c-7.7-86.3-1.9-99.7,38.4-126.6c36.4-24.9,49.9-55.6,61.4-136.2c9.6-82.5,28.8-126.6,86.3-201.4c82.5-103.6,74.8-109.4-76.7-65.2c-82.5,24.9-111.3,46.1-166.9,124.7c-38.4,53.7-76.7,95.9-84.4,95.9c-9.6,0-21.1,17.3-28.8,36.5c-5.8,21.1-36.5,69.1-67.1,107.4c-40.3,51.8-53.7,84.4-46,117c9.6,34.6,0,49.9-46,72.9c-55.6,28.8-111.3,132.4-88.2,166.9c11.5,19.2-38.4,119-90.2,188c-24.9,30.7-36.4,76.7-36.4,138.1c0,65.2-19.2,126.6-65.2,222.5c-36.5,71-84.4,209.1-107.4,303.1c-80.6,343.4-145.8,447-358.8,567.9c-138.1,78.6-247.5,176.5-310.8,278.2c-28.8,42.2-84.4,107.4-124.7,142c-69.1,61.4-72.9,69.1-61.4,153.5c7.7,59.5,1.9,118.9-17.3,172.7c-28.8,80.6-28.8,86.3,19.2,157.3c72.9,111.3,86.3,157.3,65.2,232.1c-17.3,63.3-101.7,166.9-134.3,166.9c-9.6,0-17.3-17.3-17.3-38.4c0-36.4-11.5-32.6-143.9,34.5c-109.4,53.7-163.1,95.9-216.8,166.9c-57.6,74.8-95.9,103.6-205.3,147.7c-72.9,30.7-189.9,69.1-255.2,84.4c-182.3,42.2-285.9,80.6-387.5,143.9c-76.7,48-92.1,67.1-103.6,132.4c-5.8,42.2-51.8,138.1-99.8,214.9C585.9-70.8,513,48.1,472.7,117.2C338.4,345.4,336.5,263,468.8-49.8c57.6-136.2,57.6-189.9-1.9-124.7c-61.4,71-153.5,245.6-151.6,289.7c1.9,24.9-3.8,55.6-13.4,67.1c-71,84.4-57.5,408.6,36.5,878.7c147.7,732.8,470,1427.3,938.1,2016.3c132.4,166.9,481.5,533.3,562.1,590.9l51.8,38.4l28.8-67.1c28.8-67.1,90.2-117,132.4-101.7c13.4,3.8,21.1,34.5,17.3,74.8c-5.8,53.7,3.8,72.9,40.3,97.8c49.9,32.6,82.5,157.3,51.8,195.7c-11.5,13.4,34.5,55.6,140,128.5C2467.9,4149.7,2479.4,4155.5,2525.4,4126.7z M7693.7,4040.4c36.4-26.9,36.4-30.7,3.8-101.7c-26.8-59.5-30.7-99.8-21.1-186.1c24.9-188,128.5-266.7,401-307c105.5-17.3,115.1,7.7,40.3,117c-26.9,38.4-48,95.9-48,128.5c0,57.5,0,57.5,44.1,21.1c138.1-115.1,272.4-257.1,303.1-324.2c21.1-44.1,36.5-61.4,36.5-40.3c0,28.8,5.8,30.7,28.8,11.5c15.3-13.4,28.8-36.5,28.8-49.9c0-15.3,7.7-24.9,17.3-23c24.9,7.7,253.2-270.5,402.9-493c510.3-750.1,782.7-1578.9,821.1-2494c11.5-293.5-15.3-742.4-51.8-867.1l-13.4-53.7l-11.5,48c-5.8,26.9-11.5,61.4-9.6,76.7c0,15.3-19.2,76.7-42.2,134.3c-24.9,57.6-57.5,138.1-72.9,178.4c-30.7,76.7-71,109.4-136.2,109.4c-26.8,0-40.3,11.5-40.3,36.5c0,55.6-65.2,122.8-174.6,184.2c-92.1,49.9-119,53.7-268.6,51.8c-122.8-3.8-172.7,3.8-188,23c-13.4,15.4-59.5,26.9-115.1,26.9c-107.4,1.9-207.2,38.4-259,97.8c-21.1,21.1-48,40.3-61.4,40.3c-49.9,0,13.4-117,90.1-166.9c42.2-26.9,74.8-61.4,74.8-76.7c0-42.2,44.1-48,120.8-15.3c99.8,40.3,122.8,36.5,157.3-28.8c17.3-32.6,51.8-67.1,76.7-76.7c101.7-38.4,23-222.5-147.7-345.3c-142-103.6-406.7-245.6-479.6-259c-38.4-7.7-84.4-24.9-103.6-36.4c-26.9-21.1-28.8-28.8-5.8-67.1c23-34.5,36.5-40.3,84.4-28.8c32.6,7.7,90.2,15.3,130.4,17.3c38.4,1.9,88.3,19.2,105.5,36.5c90.2,80.6,82.5-80.6-11.5-220.6c-157.3-239.8-191.8-283.9-353-454.7c-92.1-97.8-174.6-201.4-182.2-228.3c-5.8-28.8-1.9-111.3,9.6-182.3c30.7-172.7,28.8-274.3-3.8-337.6c-15.4-28.8-84.4-105.5-155.4-170.8c-109.4-101.7-126.6-126.6-115.1-163.1c36.5-120.9,32.6-138.1-46.1-216.8c-44.1-40.3-78.6-92.1-78.6-111.3c0-46.1-178.4-287.8-245.6-335.7c-72.9-49.9-228.3-99.8-312.7-99.8c-78.7,0-113.2,36.5-113.2,118.9c0,24.9-23,92.1-49.9,149.6c-26.9,57.6-67.1,178.4-88.3,268.6c-21.1,90.2-55.6,203.4-76.7,255.1c-49.9,113.2-40.3,251.3,23,339.6c36.5,49.9,40.3,69.1,21.1,107.4c-11.5,26.8-15.3,80.6-9.6,120.9c11.5,67.1,3.8,84.4-86.3,195.7c-109.3,134.3-143.9,224.4-115.1,299.3c19.2,53.7,23,142,5.8,186.1c-7.7,19.2-34.5,30.7-78.7,30.7c-36.4,0-103.6,23-151.6,49.9l-84.4,49.9l-69.1-44.1c-61.4-36.5-101.7-44.1-287.8-48l-216.8-5.8l-46.1,55.6c-24.9,28.8-67.1,57.6-92.1,61.4c-32.6,3.8-57.6,28.8-82.5,84.4c-19.2,42.2-65.2,97.8-99.8,122.8c-80.6,53.7-99.8,122.8-88.3,316.5c3.8,84.4,0,184.2-11.5,222.6c-17.3,61.4-9.6,84.4,61.4,220.6c55.6,105.5,101.7,168.8,157.3,209.1c53.7,38.4,84.4,76.7,92.1,117c7.7,32.6,51.8,109.3,97.8,170.7c103.6,132.4,111.3,199.5,34.5,257.1c-107.4,80.6-107.4,80.6-95.9,180.3c7.7,51.8,26.9,124.7,46.1,163.1c34.5,69.1,38.4,71,166.9,82.5c97.8,7.7,140,21.1,157.3,46c48,65.2,32.6,120.9-49.9,174.6c-92.1,61.4-97.8,84.4-17.2,84.4c55.6,0,120.8,40.3,214.8,130.4c21.1,19.2,32.6,49.9,26.9,76.7c-5.8,32.6,3.8,49.9,42.2,71c28.8,13.4,92.1,69.1,142,122.8c80.6,84.4,90.2,105.5,90.2,182.3c0,48,9.6,92.1,19.2,97.8c11.5,7.7,19.2-19.2,19.2-65.2c0-53.7,13.4-92.1,38.4-117c46.1-46,53.7-46,232.1-7.7c161.2,34.5,209.1,74.8,209.1,170.7c0,55.6,7.7,65.2,53.7,71c40.3,3.8,49.9,15.3,46,44.1c-19.2,115.1-19.2,115.1,78.7,117c95.9,1.9,151.6,30.7,117,65.2c-9.6,9.6-72.9,24.9-138.1,30.7c-209.1,23-253.2,94-174.6,276.3c44.1,103.6,42.2,159.2-5.8,168.8c-34.5,5.8-124.7-161.1-168.8-316.5c-21.1-71-21.1-86.3,17.3-145.8c48-78.7,49.9-105.5,7.7-151.6c-17.3-19.2-46-76.7-61.4-126.6c-26.8-80.6-38.4-90.2-92.1-95.9c-51.8-5.8-61.4,0-51.8,24.9c13.4,32.6-63.3,220.6-88.2,220.6c-7.7,0-24.9-13.4-38.4-30.7c-36.5-42.2-88.2-67.1-120.9-53.7c-38.4,13.4-90.2,145.8-90.2,228.3c0,71,23,99.8,134.3,168.8c42.2,26.9,86.3,80.6,117,145.8c46.1,92.1,63.3,155.4,103.6,358.8c17.3,90.2,257.1,266.7,370.3,272.4c109.4,7.7,157.3-9.6,157.3-51.8c0-40.3,65.2-71,191.8-88.2c118.9-17.3,165-51.8,220.6-163.1c57.5-113.2,118.9-134.3,95.9-32.6c-26.9,111.3-21.1,174.6,13.4,182.3c23,3.8,40.3-11.5,53.7-42.2c24.9-67.1,44.1-63.3,142,26.9c57.5,53.7,88.2,69.1,101.7,55.6c15.4-15.3,32.6-15.3,59.5,0c21.1,11.5,57.6,21.1,80.6,21.1c32.6,0,40.3,9.6,34.5,53.7c-5.8,49.9-9.6,51.8-115.1,51.8c-61.4,0-118.9,9.6-132.4,24.9c-13.4,11.5-44.1,23-69.1,23c-55.6,0-90.2,78.7-74.8,174.6c5.8,36.5,1.9,118.9-7.7,180.3c-15.3,94-13.4,126.6,15.3,186.1C7622.8,4074.9,7638.1,4082.6,7693.7,4040.4z M5259.2,2872.1l134.3-1.9l-1.9-72.9c-3.8-132.4-107.5-199.5-247.5-165c-80.6,21.1-84.4,24.9-103.6,115.1c-25,115.1-11.5,159.2,44.1,142C5105.7,2881.6,5186.3,2874,5259.2,2872.1z M5800.2,2171.8c13.4-40.3,15.3-61.4,0-76.7c-15.3-15.4-1.9-46,40.3-105.5c34.5-46,61.4-90.2,61.4-97.8s15.4-32.6,34.5-57.6c38.4-48,42.2-151.6,7.7-155.4c-13.4-1.9-40.3-3.8-61.4-5.8c-19.2,0-67.1-32.6-103.6-69.1c-99.8-99.8-115.1-90.2-101.7,61.4c9.6,88.2,25,140,51.8,168.8c51.8,55.6,48,80.6-19.2,138.1c-65.2,53.7-76.7,142-26.8,212.9C5723.5,2244.7,5773.4,2239,5800.2,2171.8z M5635.2,1955c7.7-107.4-9.6-182.3-51.8-226.4c-69.1-71-113.2-36.5-115.1,92.1c-1.9,95.9,0,99.8,67.1,126.6C5621.8,1983.8,5633.3,1983.8,5635.2,1955z M2130.2,50c-7.7-15.3-19.2-28.8-28.8-28.8c-9.6,0-17.3,13.4-17.3,28.8s13.4,28.8,28.8,28.8C2130.2,78.8,2136,67.3,2130.2,50z M2097.6-116.9c-5.8-13.4-9.6-3.8-9.6,23c0,26.9,3.8,36.5,9.6,24.9C2101.4-82.4,2101.4-105.4,2097.6-116.9z M2239.6-128.4c28.8-72.9,7.7-71-36.5,3.8c-30.7,51.8-32.6,65.2-11.5,55.6C2208.9-74.7,2230-101.5,2239.6-128.4z M2066.9-232c67.1-34.5,143.9-71,168.8-82.5c86.3-34.5,71-67.1-32.6-67.1c-71,0-101.7,9.6-130.5,40.3c-57.6,63.3-132.4,94-228.3,94c-99.8,0-101.7,26.9-3.8,55.6C1932.6-164.9,1934.5-164.9,2066.9-232z M2550.4-423.9l42.2-44.1l-95.9-13.4c-140-17.3-188-17.3-220.6,3.8c-24.9,17.3-23,24.9,17.3,57.6C2356.6-364.4,2492.8-368.2,2550.4-423.9z M2726.9-458.4c5.8-9.6,5.8-19.2-3.8-19.2c-7.7,0-36.5-5.8-63.3-11.5c-46-9.6-46-9.6-11.5,19.2C2692.3-433.4,2709.6-431.5,2726.9-458.4z M2160.9-494.8c0-21.1-49.9-42.2-65.2-26.9c-23,23-9.6,44.1,26.9,44.1C2143.7-477.6,2160.9-485.2,2160.9-494.8z M2947.5-594.6c0-34.5-3.8-36.5-28.8-17.3c-28.8,23-23,57.5,11.5,57.5C2939.8-554.3,2947.5-573.5,2947.5-594.6z M4509.1-1734.2c5.8-17.3,0-28.8-17.3-28.8c-15.3,0-28.8,13.4-28.8,28.8s7.7,28.8,17.3,28.8C4489.9-1705.4,4501.4-1718.8,4509.1-1734.2z M8330.6-2043c-11.5-101.7-165-527.6-207.2-579.4c-32.6-38.4-113.2-19.2-155.4,38.4c-38.4,49.9-38.4,49.9,0,115.1c21.1,34.5,53.7,103.6,72.9,155.4c21.1,55.6,46.1,90.2,65.2,92.1c30.7,0,109.3,97.8,184.2,224.4c21.1,32.6,40.3,61.4,46,61.4C8340.2-1935.6,8338.3-1983.6,8330.6-2043z M4167.6-4324.1c-36.5-26.9-69.1-23-69.1,11.5c0,9.6,23,17.3,53.7,17.3C4202.1-4297.2,4202.1-4297.2,4167.6-4324.1z"/><path d="M3805,4483.6c-5.8-15.4,0-36.5,13.4-48c21.1-17.3,28.8-11.5,34.5,26.9C3864.5,4514.3,3822.3,4531.5,3805,4483.6z"/><path d="M1547,3321c0-48,7.7-57.6,44.1-57.6c63.3,0,72.9,17.3,38.4,69.1C1587.3,3397.7,1547,3392,1547,3321z"/><path d="M1944.1,1471.6c-26.9-21.1-28.8-28.8-7.7-36.4c28.8-9.6,71,19.2,71,48C2007.4,1506.1,1984.4,1500.4,1944.1,1471.6z"/><path d="M1830.9,1465.8c-19.2-3.8-34.5-17.3-34.5-26.9c0-26.9,30.7-21.1,57.6,11.5c13.4,15.3,21.1,26.9,17.3,26.9C1867.4,1475.4,1848.2,1471.6,1830.9,1465.8z"/><path d="M2063.1,1350.7c-5.8-42.2,7.7-132.4,19.2-145.8c23-23,55.6,26.9,63.3,92.1c3.8,48-1.9,59.5-36.5,63.3C2084.2,1364.2,2065,1360.3,2063.1,1350.7z"/><path d="M1854,1180c-11.5-26.9-19.2-67.1-19.2-88.2c0-65.2,51.8-5.8,61.4,71C1905.8,1241.4,1880.8,1251,1854,1180z"/><path d="M7283.2,2991c-36.5-9.6-72.9-28.8-80.6-40.3c-23-34.5,1.9-132.4,44.1-174.6c46-49.9,69.1-24.9,36.5,36.4c-19.2,38.4-21.1,53.7-3.8,71c17.3,17.3,28.8,17.3,46,0c15.4-15.4,26.8-9.6,48,28.8C7425.2,3012.1,7407.9,3027.5,7283.2,2991z"/><path d="M7505.7,1446.6c-7.7-17.3,0-44.1,17.3-63.3c38.4-42.2,36.5-63.3-5.8-101.7c-46-42.2-130.4-42.2-155.4,1.9c-23,38.4-65.2,19.2-122.8-57.6c-28.8-38.4-32.6-57.6-15.3-88.2c17.3-32.6,30.7-36.5,76.7-23c28.8,7.7,72.9,24.9,97.8,38.4c34.5,19.2,57.6,15.3,134.3-17.3c157.3-67.1,268.6-48,268.6,48c0,28.8-19.2,49.9-57.5,65.2c-92.1,38.4-149.6,92.1-163.1,151.6C7567.1,1465.8,7523,1490.8,7505.7,1446.6z"/><path d="M6513.9,1233.7c26.8-49.9,80.6-92.1,161.1-124.7c128.5-55.6,61.4,48-80.6,120.9C6500.5,1277.8,6490.9,1277.8,6513.9,1233.7z"/><path d="M6304.8,1093.6c0-13.4-38.4-19.2-109.4-13.4c-105.5,5.8-111.3,3.8-182.3-71c-40.3-42.2-80.6-107.4-92.1-145.8c-21.1-78.7-67.1-124.7-168.8-172.7c-42.2-19.2-57.6-34.5-36.5-34.5c19.2-1.9,88.3,24.9,153.5,59.5c107.5,53.7,140,61.4,335.7,69.1c153.5,5.8,224.5,1.9,239.8-13.4c13.4-13.4,23-67.1,23-122.8v-99.8l67.1-5.8c36.5-3.8,88.2-26.9,115.1-49.9c71-65.2,140-107.4,172.7-107.4c23,0,28.8,17.3,23,76.7c-5.8,55.6,0,78.7,21.1,88.3c17.3,5.8,111.3-11.5,211-38.4c218.7-59.5,280.1-61.4,379.8-11.5c120.9,63.3,151.6,103.6,151.6,201.4c0,48-3.8,86.3-9.6,86.3c-3.8,0-51.8-17.3-107.4-38.4c-122.8-48-209.1-36.4-310.8,46c-51.8,40.3-80.6,82.5-95.9,140.1c-23,88.2-42.2,97.8-97.9,57.6c-34.5-24.9-34.5-28.8-3.8-53.7c92.1-74.8,103.6-92.1,94-130.5c-7.7-32.6-24.9-40.3-94-40.3c-46.1,0-84.4,7.7-84.4,19.2c0,30.7-117,153.5-145.8,153.5c-15.4,0-26.9-15.3-26.9-32.6c0-55.6-97.8-178.4-142-178.4c-90.2,0-122.8,101.7-40.3,122.8c38.4,9.6,48,24.9,48,69.1s-13.4,63.3-61.4,88.3c-34.5,17.3-84.4,48-109.4,67.1C6371.9,1118.6,6304.8,1126.3,6304.8,1093.6z M6362.3,968.9c0-74.8-24.9-95.9-65.2-53.7c-36.4,34.5-38.4,72.9-9.6,124.7C6316.3,1095.6,6362.3,1051.4,6362.3,968.9z"/><path d="M7578.6,243.8c-13.4-55.6,28.8-159.2,103.6-255.2c30.7-40.3,80.6-138.1,109.4-216.8c74.8-205.3,239.8-370.3,239.8-239.8c0,63.3-44.1,166.9-103.6,245.6c-26.8,36.5-59.5,92.1-71,126.6c-13.4,34.5-51.8,105.5-86.3,159.2c-36.5,51.8-65.2,107.4-65.2,118.9c0,24.9-78.7,107.4-101.7,107.4C7595.9,289.8,7586.3,268.7,7578.6,243.8z"/></g></g>
</svg>
